<svg version="1.1" id="Layer_1" xmlns="http://www.w3.org/2000/svg" xmlns:xlink="http://www.w3.org/1999/xlink" x="0px" y="0px"
	 width="100%" viewBox="0 0 310 319" enable-background="new 0 0 310 319" xml:space="preserve">
<path fill="#000000" opacity="1.000000" stroke="none" 
	d="
M215.751160,1.312326 
	C246.483856,1.000000 276.967896,1.044002 307.451294,0.927427 
	C310.292664,0.916561 311.095795,1.325225 311.092468,4.447947 
	C310.980865,108.392761 310.982147,212.337738 311.084045,316.282562 
	C311.087189,319.480743 310.268433,320.075409 307.221252,320.072754 
	C206.441391,319.984833 105.661385,319.972900 4.881629,320.108765 
	C1.221345,320.113708 0.906762,319.059906 0.919518,315.885376 
	C1.050715,283.236450 1.000000,250.586777 1.000000,217.468658 
	C2.714211,215.421341 3.862268,216.402679 4.934328,217.849899 
	C6.506669,219.972412 8.556197,221.488968 11.358206,222.682404 
	C14.868976,224.149826 18.167437,224.451996 21.507452,224.465790 
	C37.949799,224.533661 54.392220,224.490891 70.834618,224.494095 
	C73.542351,224.494614 76.169983,224.374084 78.455055,221.893951 
	C83.963547,216.365356 84.213242,215.316391 81.168457,210.681671 
	C80.762825,209.691849 80.581078,209.006866 80.045563,208.107635 
	C78.174423,205.919937 76.930244,203.397873 73.447426,203.402863 
	C72.898582,203.084366 72.694160,202.924576 72.238632,202.460510 
	C71.425797,200.450745 70.680298,198.909805 68.350731,198.238342 
	C67.790421,197.810226 67.573929,197.623520 67.116440,197.075333 
	C66.544136,191.861282 64.063210,187.471283 64.404518,182.357834 
	C64.683853,178.172867 64.984055,174.141724 66.783867,169.902344 
	C66.972969,169.266739 67.040459,169.012085 67.242249,168.388550 
	C69.776390,165.975922 72.958145,164.637726 73.863312,160.737823 
	C74.267624,160.256821 74.465675,160.097214 74.979309,159.724472 
	C75.714462,159.221161 76.131081,158.926804 76.845840,158.388107 
	C77.352081,157.993378 77.557289,157.838867 78.102432,157.499420 
	C80.195244,156.527405 81.856720,157.918427 83.963432,157.511292 
	C86.830101,157.611359 89.224075,156.453568 92.120583,156.959564 
	C98.058968,156.665558 102.673264,160.102402 108.353241,160.977127 
	C109.265320,161.287155 109.697586,161.613770 110.342285,162.322479 
	C110.836357,162.775299 111.037865,162.951447 111.545151,163.382462 
	C112.054733,163.804459 112.258545,163.971558 112.733810,164.424622 
	C113.504730,167.670029 114.442474,170.392548 117.215027,172.572433 
	C117.413345,173.197464 117.454544,173.458267 117.448120,174.104584 
	C119.153305,182.645645 117.624367,190.133499 112.604500,197.264130 
	C111.611458,198.574860 110.844345,199.579025 109.950905,200.944214 
	C106.493584,202.428619 103.457893,203.924805 100.618317,206.391144 
	C95.560524,212.200562 97.759102,218.553833 98.329651,225.051849 
	C99.131752,233.671875 102.600792,240.907196 106.909653,247.806717 
	C108.056114,249.642487 109.467148,251.281357 112.250381,251.550812 
	C112.866264,251.695831 113.104378,251.791840 113.654083,252.115799 
	C117.662537,259.130798 124.730186,259.607605 131.419952,261.534851 
	C136.747437,262.358826 141.727890,263.548523 146.914490,260.847961 
	C147.518173,260.630005 147.769028,260.578796 148.393219,260.542847 
	C153.477600,260.984009 157.639420,259.688171 161.312119,256.258667 
	C161.459625,255.706116 161.519333,255.478821 161.727417,254.919754 
	C162.168427,254.194839 162.504974,253.844421 163.185333,253.324539 
	C163.685699,252.977783 163.893372,252.850266 164.414185,252.534668 
	C165.147186,252.095688 165.558502,251.831406 166.254547,251.327057 
	C166.764389,250.979935 166.982361,250.861710 167.556320,250.644836 
	C171.675507,251.096954 172.999527,248.216995 174.717880,245.796997 
	C175.963974,244.042130 177.438797,242.446762 178.280029,240.036636 
	C178.501007,239.496185 178.598694,239.281433 178.884674,238.762207 
	C181.825241,233.920441 182.692429,228.815933 183.582382,223.313599 
	C185.267456,212.075882 184.244583,201.162445 184.414093,190.275604 
	C184.452057,187.838303 182.802917,186.410553 181.312256,184.388275 
	C180.642212,182.476730 179.641876,181.751343 177.972183,181.461349 
	C173.262039,180.643219 169.005661,178.602982 164.590729,176.040405 
	C164.011292,175.867523 163.777496,175.807648 163.206696,175.616684 
	C161.580200,173.956604 160.482407,172.111603 157.647278,172.457123 
	C157.074234,172.254379 156.861618,172.131210 156.384888,171.754578 
	C155.962402,171.316925 155.804062,171.132782 155.157394,170.408447 
	C154.495728,169.693405 154.322418,169.518539 153.587585,168.833313 
	C152.825317,168.153976 152.624588,167.985031 152.139709,167.530731 
	C151.699142,167.020782 151.542725,166.796204 151.228851,166.190842 
	C151.158234,162.924026 149.287018,160.919281 147.910233,158.671707 
	C137.903107,142.335052 132.249130,124.648643 131.499878,105.059921 
	C131.500153,102.809006 131.499741,100.951759 131.500168,98.694717 
	C131.135803,93.677200 133.047592,89.396576 133.561005,84.491371 
	C133.764511,83.841782 133.891342,83.598312 134.301331,83.059311 
	C138.119461,81.478180 140.844040,79.328712 142.400040,75.364944 
	C142.855850,74.906235 143.061386,74.749359 143.615601,74.428391 
	C147.620071,74.424217 151.072540,74.124001 153.200958,69.979553 
	C153.650208,69.511627 153.861023,69.352081 154.439438,69.044632 
	C161.861984,65.026138 168.510254,65.650536 175.143188,70.887909 
	C175.739120,71.268623 175.949844,71.463181 176.425156,72.000679 
	C177.771317,76.392479 177.418304,80.525490 177.367462,85.046402 
	C177.207489,85.698845 177.091095,85.943108 176.698730,86.478050 
	C171.085251,89.905785 165.633789,90.232201 159.695602,88.294029 
	C154.904938,86.730408 148.281128,91.881767 146.996735,97.674026 
	C145.713776,103.459953 146.116379,109.324219 147.708450,114.897202 
	C151.257019,127.318756 154.605942,139.734589 161.467194,151.061768 
	C170.436829,165.869675 191.904068,171.438354 204.095169,164.377670 
	C206.018372,163.263809 207.869675,162.255600 208.558685,159.525848 
	C208.853973,158.943756 209.009003,158.731705 209.463959,158.272598 
	C210.169678,157.727798 210.573227,157.427078 211.253128,156.893326 
	C211.885056,156.349991 212.229645,156.027313 212.795639,155.437042 
	C213.629608,154.491287 214.257217,153.824203 215.028198,152.821899 
	C215.372437,152.350266 215.508850,152.158218 215.851135,151.674072 
	C216.346710,150.990738 216.646973,150.607803 217.187958,149.936310 
	C217.565964,149.434433 217.711716,149.227737 218.073608,148.702057 
	C222.056381,146.613464 223.426331,143.152023 224.913956,139.576797 
	C229.069977,129.588608 232.072159,119.323814 233.030594,108.529160 
	C233.419113,104.153191 234.207550,99.842560 231.639297,95.548439 
	C229.492874,91.959595 227.009995,90.111122 222.479263,90.705551 
	C220.441162,91.102478 218.870712,90.869583 217.048431,89.850891 
	C215.197922,88.560356 213.394241,88.187515 211.707794,87.529610 
	C204.450211,84.698318 202.541855,79.153717 206.578629,72.597847 
	C207.012024,71.893990 207.485596,71.221550 207.865387,70.025757 
	C208.062347,69.343369 208.154663,69.070282 208.484863,68.428589 
	C209.773254,67.023834 211.081985,66.470650 212.871185,66.018456 
	C213.801529,65.975189 214.326431,65.959480 215.220795,65.927078 
	C217.009476,66.314667 217.962631,65.704391 218.840210,64.168442 
	C220.349304,62.536629 220.414520,60.842278 220.426376,59.183102 
	C220.531036,44.550121 220.591934,29.916725 220.388702,15.284250 
	C220.363556,13.473413 220.341019,11.604789 218.981873,9.647141 
	C219.195740,6.080792 214.774368,4.944783 215.751160,1.312326 
z"/>
<path fill="#000000" opacity="1.000000" stroke="none" 
	d="
M1.410977,99.204376 
	C1.000000,67.571556 1.056699,36.142853 0.913363,4.715061 
	C0.898835,1.529569 1.715588,0.910813 4.768618,0.923633 
	C34.866215,1.050013 64.964554,1.000000 95.531342,1.000000 
	C97.433151,2.466155 96.898727,3.599578 95.426231,4.625845 
	C93.742134,5.799594 92.429283,7.219386 92.467979,9.881830 
	C92.226944,10.833055 91.972748,11.334911 91.475113,12.200778 
	C90.308960,15.851009 90.526184,19.201574 90.515175,22.521788 
	C90.443405,44.165249 90.584572,65.809006 90.374794,87.917953 
	C90.198418,88.673431 90.085106,88.963402 89.653458,89.592056 
	C87.270744,90.861053 85.079178,90.476974 82.944130,90.481499 
	C62.515739,90.524796 42.084667,90.304832 21.660213,90.613129 
	C14.695548,90.718262 7.956842,92.397263 3.029717,98.821281 
	C2.407155,99.229683 2.114554,99.319221 1.410977,99.204376 
z"/>
<path fill="#23688F" opacity="1.000000" stroke="none" 
	d="
M1.000000,99.468658 
	C1.000000,99.000000 1.470778,99.009995 1.702065,98.965958 
	C2.590977,98.878281 3.201894,99.026993 4.083180,99.731003 
	C5.427116,101.438133 5.493365,103.112480 6.066489,105.126259 
	C6.550895,111.431641 6.554747,117.237442 4.989728,122.922127 
	C4.448696,124.887337 4.502293,126.867790 4.503109,128.857712 
	C4.511906,150.297028 4.459559,171.736511 4.532366,193.175583 
	C4.553731,199.466843 5.564268,205.760818 4.289331,212.527969 
	C3.744003,214.026520 3.009065,214.577606 1.433303,214.244614 
	C1.000000,175.979111 1.000000,137.958206 1.000000,99.468658 
z"/>
<path fill="#206D8F" opacity="1.000000" stroke="none" 
	d="
M98.713577,1.422070 
	C136.020889,1.000000 173.041794,1.000000 210.531342,1.000000 
	C211.457825,1.535035 211.692535,2.153764 211.521469,3.338432 
	C209.521133,5.802467 207.052841,5.428112 204.789871,5.434658 
	C171.635910,5.530567 138.481766,5.528355 105.327736,5.443653 
	C103.361259,5.438629 101.314606,5.600445 99.142067,4.106012 
	C98.400452,3.177828 98.290543,2.531839 98.713577,1.422070 
z"/>
<path fill="#336D8B" opacity="1.000000" stroke="none" 
	d="
M211.012726,3.460177 
	C211.050262,2.587640 211.039780,2.133904 211.014648,1.340085 
	C212.388885,1.000000 213.777786,1.000000 215.583344,1.000000 
	C216.176804,4.001622 219.734253,3.980021 220.862534,6.565722 
	C221.948624,8.587447 221.469070,10.451756 221.475372,12.242484 
	C221.539795,30.515516 221.451477,48.788811 221.690201,67.523346 
	C220.710388,71.404434 218.378708,68.597710 216.314240,68.892799 
	C214.828049,67.754692 214.622620,66.552422 215.492935,65.262993 
	C217.571915,62.182861 217.499313,58.686138 217.501068,55.201069 
	C217.507126,43.111320 217.420380,31.020727 217.541016,18.932213 
	C217.594757,13.547301 217.010376,8.632622 211.765533,5.617479 
	C211.165878,5.272748 211.049957,4.544439 211.012726,3.460177 
z"/>
<path fill="#396B85" opacity="1.000000" stroke="none" 
	d="
M1.000001,214.375000 
	C1.518124,213.793335 2.036247,213.586670 2.793638,213.234833 
	C3.230006,212.919403 3.427105,212.749146 4.012376,212.528656 
	C7.451829,215.463562 9.193816,219.693115 13.300277,221.711548 
	C13.952682,222.032211 13.861840,223.158661 13.236353,224.233963 
	C12.157063,224.729935 11.378288,224.498184 10.246143,224.255737 
	C5.172043,223.791840 4.310694,219.235687 1.337519,216.822479 
	C1.000000,216.250000 1.000000,215.500000 1.000001,214.375000 
z"/>
<path fill="#3D718B" opacity="1.000000" stroke="none" 
	d="
M98.625000,1.000000 
	C98.994385,1.498316 98.988770,1.996632 98.983490,2.868781 
	C100.216599,5.240728 98.630798,6.134512 97.409889,7.096076 
	C95.906075,8.280441 94.497986,9.577988 92.657623,10.928988 
	C92.089417,11.150827 91.844681,11.187922 91.230568,11.200436 
	C90.642639,11.062531 90.424072,10.949207 89.987656,10.538404 
	C89.700020,10.005397 89.630241,9.769866 89.768311,9.230082 
	C90.497414,5.082617 94.357170,4.176893 96.188232,1.325887 
	C96.750000,1.000000 97.500000,1.000000 98.625000,1.000000 
z"/>
<path fill="#4484A7" opacity="1.000000" stroke="none" 
	d="
M90.720886,10.343628 
	C92.848747,7.080302 95.521378,5.181590 98.735214,3.435904 
	C125.892471,3.163164 152.801102,3.074170 179.709793,3.009171 
	C189.843109,2.984693 199.976562,3.015812 210.585358,3.031480 
	C219.806534,6.545997 220.003006,6.832949 219.999329,16.094784 
	C219.993225,31.508259 219.911560,46.922390 220.045410,62.334652 
	C220.071915,65.387100 219.286972,67.426483 216.129684,68.575424 
	C215.528091,68.848915 215.088806,68.894325 214.320206,68.977386 
	C212.714005,69.094986 211.442322,69.193649 210.563354,70.276276 
	C210.755035,70.534714 210.652878,70.727684 210.549606,70.763069 
	C206.846664,71.959496 205.212021,74.731003 205.075424,78.215950 
	C204.934525,81.810684 206.820236,84.557816 210.059875,86.113197 
	C212.384491,87.229263 214.732468,88.705185 217.808319,87.406250 
	C219.577911,86.656700 220.444611,88.107582 221.882751,88.626373 
	C223.193924,90.255409 224.762955,89.935204 226.231247,90.000069 
	C231.688507,90.241158 233.823517,92.412239 233.990051,98.042519 
	C234.500290,115.293785 230.437134,131.488312 222.623810,146.801636 
	C221.868408,148.282120 221.127014,149.767303 220.226959,151.641571 
	C219.999619,151.996353 220.000610,152.000610 219.998322,152.000336 
	C219.414398,152.548355 218.913422,153.158005 218.644012,154.169891 
	C218.723801,154.456696 218.685303,154.619034 218.608612,154.651855 
	C216.566437,154.495667 216.537109,156.558258 215.191742,157.636810 
	C214.778336,158.200165 214.595581,158.485336 214.173096,158.869247 
	C213.541214,159.504074 212.775940,159.481445 212.560394,160.269745 
	C212.743790,160.532120 212.650391,160.713974 212.553375,160.746155 
	C208.952805,162.259430 205.926758,164.580276 202.445709,166.177811 
	C188.507446,172.574341 171.791351,165.189346 164.302429,156.026382 
	C159.170242,149.746964 154.881729,142.798508 153.021225,134.315125 
	C154.126526,132.545502 154.563538,131.318634 153.823257,129.323196 
	C152.596573,126.016586 151.342896,122.262787 156.284698,120.378426 
	C157.723022,119.829979 157.575653,118.171387 157.963486,116.940254 
	C158.774109,114.366997 160.365295,112.271111 163.049759,112.050507 
	C168.480194,111.604225 174.006805,111.365440 178.460083,115.521019 
	C179.794540,116.766258 181.055756,118.120674 182.963028,118.493286 
	C186.576401,119.199219 189.052765,116.747772 187.720581,113.372063 
	C185.902161,108.764351 185.396896,102.944809 178.862793,101.906548 
	C178.343674,101.824059 177.864120,101.505806 177.657394,101.087555 
	C175.763336,97.255898 174.129608,93.284538 168.733765,93.277557 
	C167.771881,93.276314 167.392609,91.534134 167.933014,89.963043 
	C170.392227,88.493645 173.513412,88.684052 174.782883,85.293045 
	C174.991241,84.993462 174.999390,84.999695 174.996613,84.995453 
	C179.504837,80.935219 175.682693,77.303711 174.190613,73.289780 
	C173.970581,73.037270 173.987488,73.010941 173.973389,73.017746 
	C169.462006,65.736877 162.679382,64.806717 155.245850,70.740906 
	C154.992828,70.988884 155.000610,71.000610 154.994720,70.996628 
	C152.824707,74.545471 148.516510,74.288773 145.221649,76.539047 
	C144.776154,76.788155 144.611557,76.829918 144.198669,76.928558 
	C141.057800,78.713898 138.605057,80.906151 136.792114,84.107040 
	C136.791718,84.440575 136.727036,84.644463 136.633148,84.695663 
	C133.420990,87.003441 133.647324,90.694656 132.470871,94.212273 
	C131.637421,98.852661 132.168579,103.162971 132.007599,107.852982 
	C133.706726,119.495064 135.676498,130.671463 140.051651,141.267517 
	C143.670731,150.032455 147.711929,158.539200 154.702774,165.734009 
	C154.971527,166.012268 155.005417,165.994492 154.998077,166.012177 
	C155.159607,166.185654 155.328476,166.341476 155.721924,166.758698 
	C155.946533,167.020111 156.001175,167.005707 155.990189,167.031738 
	C156.152405,167.204788 156.325623,167.351791 156.708328,167.767578 
	C156.917831,168.036362 156.978256,168.023743 156.972275,168.054016 
	C157.144638,168.223312 157.322983,168.362350 157.709534,168.769180 
	C157.917709,169.036987 157.975967,169.017395 157.965118,169.046143 
	C159.545273,170.889267 161.264557,172.546387 163.750732,173.781754 
	C164.015579,173.975311 164.004303,173.995728 164.014130,173.989258 
	C169.820969,179.079025 177.020325,180.811157 184.520599,182.735931 
	C184.910995,183.584091 184.980957,184.128006 184.990753,185.109955 
	C185.005066,193.530014 184.748276,201.530457 185.062317,209.508804 
	C185.466141,219.768555 184.263977,229.679199 180.134323,239.609100 
	C180.049149,240.047607 180.001831,240.000000 180.029083,240.019882 
	C176.359055,244.668274 173.032669,249.615173 168.246368,253.760498 
	C168.005234,254.005219 168.000000,254.000000 168.002472,254.002747 
	C167.470413,254.528839 166.604401,254.451462 166.392181,255.297089 
	C166.672867,255.543930 166.619186,255.686996 166.544678,255.703827 
	C165.503860,255.352722 165.042938,256.147736 164.248047,256.841705 
	C164.060852,257.078461 163.998688,257.007965 164.030579,257.040222 
	C159.245697,258.987854 154.603561,261.370026 149.256500,262.757996 
	C149.012360,262.995453 149.009033,263.011414 149.001297,263.009338 
	C148.562302,263.382080 148.062775,263.536560 147.097946,263.378784 
	C141.657654,262.430634 136.534424,263.577454 131.485611,262.629974 
	C124.590347,261.336029 118.501488,258.241364 112.368698,254.217102 
	C112.031067,253.985794 111.995338,254.003983 112.004257,253.986023 
	C109.937439,251.475296 106.731064,249.919556 105.802002,246.110077 
	C107.243645,243.897568 105.650620,242.312363 105.220062,240.715637 
	C104.487511,237.998947 104.293198,235.457474 106.822464,233.729736 
	C109.227036,232.087189 111.428406,232.683136 113.381691,234.941589 
	C115.270134,237.125015 117.112572,236.277786 118.883461,234.474915 
	C124.064812,229.200012 127.483505,223.616852 126.696739,215.499847 
	C125.708504,205.304306 125.303558,195.229782 117.180321,187.177200 
	C117.018257,182.697922 117.687691,178.479279 115.235565,174.337692 
	C114.973526,174.043716 114.964340,174.030869 114.957794,174.026367 
	C114.145653,171.106934 113.183990,168.281799 110.288742,166.202057 
	C110.006744,165.997391 109.999390,166.000717 110.000603,165.996979 
	C109.782097,165.771194 109.556053,165.555801 109.168549,165.171616 
	C108.682716,164.908157 108.414978,164.727081 108.100800,164.232544 
	C105.145020,161.019257 101.519638,159.509186 97.257919,158.480148 
	C92.069603,157.343979 87.262764,157.207687 82.194046,159.054138 
	C81.024239,159.469635 80.060036,159.531876 79.182831,160.522644 
	C78.775597,160.803192 78.610664,160.847260 78.195366,160.945190 
	C77.812317,161.154160 77.679626,161.309280 77.272430,161.600067 
	C76.834442,161.784195 76.670959,161.832626 76.261169,161.949982 
	C73.216965,163.560944 70.835449,165.528641 69.213959,168.748077 
	C69.014664,169.019196 68.999214,168.999390 69.009628,169.006409 
	C63.134224,175.510849 63.126541,188.831741 69.672729,195.792572 
	C69.975975,196.008163 70.004997,195.994797 69.998161,196.009216 
	C71.028656,197.675201 71.900520,199.472885 74.135826,200.298492 
	C74.458458,200.245544 74.629990,200.290863 74.668175,200.370926 
	C76.428154,204.021774 80.548431,203.563293 83.446060,205.801224 
	C83.744865,206.794250 83.826256,207.510071 83.938477,208.586121 
	C83.862968,212.754623 84.032471,216.553406 83.708359,220.378143 
	C83.396706,224.055832 81.810181,225.074341 78.321945,225.054993 
	C57.727867,224.940689 37.132812,225.005264 16.053619,224.986908 
	C14.920063,224.970947 14.285228,224.871689 13.310715,224.352081 
	C8.724483,221.788284 4.210789,219.805771 3.956730,213.624313 
	C3.067351,211.514725 3.526807,209.652481 3.523701,207.856186 
	C3.465011,173.916046 3.553075,139.975800 3.278272,105.578201 
	C3.085904,103.706596 3.075400,102.292419 3.082528,100.454117 
	C3.975715,93.990707 8.071632,91.230850 13.918997,89.887177 
	C38.382122,90.041237 62.421055,90.013634 86.919807,89.916595 
	C87.664963,89.750870 87.950302,89.634232 88.589951,89.220474 
	C88.944252,88.923370 88.999336,88.964943 88.965622,88.958252 
	C89.132179,88.704491 89.332451,88.457405 89.703117,87.764183 
	C90.168976,63.760887 89.905922,40.202686 90.016212,16.645256 
	C90.025459,14.671727 89.693687,12.658928 90.720886,10.343628 
z"/>
<path fill="#4484A7" opacity="1.000000" stroke="none" 
	d="
M308.215393,187.770050 
	C307.994751,188.778732 307.970123,189.516464 307.992126,190.620850 
	C307.715210,198.602692 308.639221,206.261246 307.146179,214.243408 
	C306.936005,216.048965 305.938843,217.191101 305.824097,219.018768 
	C305.760681,219.427475 305.701141,219.626541 305.610138,219.676620 
	C302.955414,221.540878 300.290955,223.187698 297.094055,224.724182 
	C296.441986,224.906891 296.164703,224.938141 295.457825,224.980957 
	C271.363831,225.023209 247.699387,224.968384 223.601456,225.046295 
	C222.894669,225.138535 222.621414,225.204605 222.030579,225.532440 
	C220.120255,229.472214 221.402786,233.336075 220.957916,237.437622 
	C221.083572,239.591354 216.895905,239.665421 219.248215,242.625458 
	C219.410446,250.967529 220.547104,259.037018 219.995102,266.956635 
	C219.606903,272.526154 219.454422,278.155548 218.805573,283.715942 
	C218.636795,285.162415 219.116821,286.260712 219.335037,287.526489 
	C220.105713,291.996643 217.734589,294.597839 213.314850,293.506805 
	C210.693390,292.859650 210.731125,294.386627 210.639221,295.706757 
	C210.385681,299.348877 209.645737,302.311981 205.085846,302.392334 
	C203.907745,302.413116 203.181915,303.567169 202.456772,304.517273 
	C199.064529,308.961914 195.199097,310.779999 188.982224,310.565948 
	C177.458282,310.169189 165.952209,308.468872 154.399231,309.289429 
	C148.738754,309.691467 143.098618,309.206482 137.449234,309.341492 
	C134.632385,309.408783 132.374542,308.059174 130.309097,306.245758 
	C125.623917,302.132294 121.118256,297.922180 113.999557,301.781006 
	C111.612206,303.075134 109.511963,300.916321 108.865234,298.422699 
	C108.042610,295.250916 106.517746,292.767395 104.116234,290.465759 
	C101.064568,287.541046 101.195686,282.108673 104.037376,277.355164 
	C107.454735,275.173309 109.649803,277.007538 110.766212,279.510651 
	C115.723534,290.625519 126.026833,294.063995 136.216354,297.716583 
	C137.665222,298.235962 138.878403,299.059082 140.138809,299.859589 
	C144.533783,302.650940 149.120651,303.288879 153.894516,300.925598 
	C155.431000,300.164978 157.006317,299.458099 158.673645,299.947540 
	C162.743317,301.142151 166.640289,300.069733 170.489502,299.106842 
	C174.976730,297.984344 179.258743,296.323639 184.107819,296.825745 
	C187.099533,297.135529 189.561310,295.351471 190.485077,292.217499 
	C191.329987,289.351013 193.324295,287.391083 196.039551,287.037537 
	C204.165314,285.979584 206.445816,279.240479 206.902054,273.452209 
	C207.689835,263.457550 209.894775,253.466034 208.013245,243.194855 
	C207.020721,237.776779 208.878586,231.968491 208.587982,225.919464 
	C212.521255,220.990829 216.711334,216.669907 218.194366,210.199249 
	C218.585693,209.367050 218.949081,209.005646 219.763885,208.633102 
	C220.451767,208.516251 220.821762,208.417206 221.111481,208.529831 
	C229.347076,211.731339 235.473129,206.515152 242.107437,203.303787 
	C244.294037,202.245331 244.712784,199.971405 245.165985,198.108490 
	C246.099960,194.269150 247.773392,191.480530 251.875885,190.642746 
	C254.009705,190.206985 254.866013,188.772568 254.876801,186.672821 
	C254.895950,182.938278 254.213455,179.155106 256.464294,175.662827 
	C257.714813,173.722610 255.230774,173.496445 254.285507,172.167587 
	C253.938797,171.215195 253.658508,170.472992 253.915100,169.902924 
	C256.950867,163.158188 255.864944,155.384460 259.766296,148.721481 
	C263.658386,142.074356 261.218475,134.528137 254.768250,130.060303 
	C253.158432,134.293335 248.360687,135.727921 246.355438,139.861694 
	C245.458267,141.711182 242.790848,141.092148 242.040100,138.011139 
	C243.882339,131.071533 245.319046,124.404671 246.979843,117.384430 
	C247.006302,116.161972 247.017883,115.344963 247.352356,114.158264 
	C248.537888,109.680870 247.748245,105.514481 248.000443,100.973747 
	C248.000259,100.000031 247.999939,99.442596 247.998581,98.464218 
	C248.055664,96.608200 247.938828,95.207794 247.121521,93.501480 
	C246.952957,91.332466 247.551315,90.160393 249.936478,90.029022 
	C265.570129,89.989662 280.741486,89.996292 296.366150,90.021744 
	C303.918915,91.391708 306.415863,96.739159 307.961914,103.341537 
	C306.999695,108.591896 308.047791,113.393509 308.017700,118.201042 
	C307.890656,138.502319 308.012329,158.804001 308.016174,179.572571 
	C307.999146,182.057602 307.974152,184.075607 307.985260,186.524734 
	C308.151398,187.136948 308.281403,187.318039 308.215393,187.770050 
z"/>
<path fill="#4581A3" opacity="1.000000" stroke="none" 
	d="
M211.006500,225.641724 
	C210.855835,242.859421 211.686661,259.742889 209.605164,276.556396 
	C208.827789,282.835846 204.400589,288.007202 198.374878,289.120209 
	C195.933533,289.571167 193.541977,290.368774 193.275894,293.102478 
	C192.697906,299.040741 187.938934,300.036530 183.897018,300.039581 
	C177.825867,300.044189 172.268066,302.168945 166.400558,302.827301 
	C163.931198,303.104370 161.592911,304.071808 159.113220,302.898224 
	C157.605896,302.184784 156.227676,302.776215 154.867828,303.557190 
	C151.129135,305.704315 146.920517,305.761688 143.257294,304.265289 
	C134.555023,300.710419 125.993652,296.753326 117.615150,292.487732 
	C113.532036,290.408936 111.489761,286.021790 109.169586,282.203369 
	C108.205231,280.616272 107.560593,278.917480 105.326859,278.117920 
	C104.761940,277.916382 104.521736,277.833984 104.019066,277.472321 
	C103.189568,274.930542 101.160797,274.891296 99.109230,274.114075 
	C97.252769,271.812042 98.379997,269.987091 99.539597,267.810822 
	C102.509750,265.404205 105.307961,266.513916 106.622398,268.636658 
	C108.465416,271.613098 110.867729,272.312347 114.253494,272.533081 
	C115.633011,272.769287 116.611107,273.001556 117.798340,273.696777 
	C119.721954,274.634338 121.250221,275.634857 123.430695,275.822235 
	C124.621216,276.008209 125.492310,276.000122 126.688614,275.961761 
	C127.445152,275.997803 127.877068,276.049225 128.631470,276.152588 
	C130.762726,277.627808 133.128479,276.477386 135.392197,277.385498 
	C137.086227,277.221313 138.408295,277.188934 140.001465,277.251129 
	C141.362442,279.681274 143.173813,278.169128 144.742355,277.638123 
	C144.784363,277.100250 145.255356,277.241516 145.184799,277.477051 
	C146.498276,277.147522 148.011108,277.086426 149.732513,276.411865 
	C150.478119,276.161682 150.909698,276.112366 151.662811,276.008789 
	C160.331467,274.691498 167.716568,271.210449 174.734344,266.034607 
	C175.552322,265.429810 176.038116,264.957886 176.764526,264.250244 
	C178.155182,262.774200 179.303024,261.531403 180.737701,260.147827 
	C181.183212,259.837860 181.341858,259.668640 181.756348,259.263672 
	C182.200012,258.757843 182.387802,258.487823 182.805847,258.118042 
	C183.569107,257.493652 184.330292,257.204407 184.829514,256.237854 
	C185.011765,256.018921 184.998779,255.998367 185.009155,256.004761 
	C185.918579,255.053497 186.926987,254.185440 187.678375,252.679016 
	C192.074036,245.650314 196.207489,238.872498 196.972412,230.343689 
	C197.005203,229.569519 197.064606,229.136749 197.180984,228.381088 
	C197.390198,227.866776 197.542404,227.675339 197.440918,227.218918 
	C197.163956,226.528519 197.140640,226.103134 197.175598,225.362091 
	C197.837173,224.070389 198.627625,223.131088 198.568237,221.920074 
	C198.004501,210.427475 199.970032,198.930420 198.500351,187.041962 
	C198.490311,185.860031 198.546997,185.080017 198.569244,183.921051 
	C198.610031,183.300659 198.678940,183.058929 199.001343,182.538666 
	C204.507553,180.037781 210.368851,179.252075 214.596222,175.535492 
	C214.182571,175.485153 214.311646,175.258286 214.431732,175.207153 
	C217.934494,174.290482 220.225281,171.858322 222.803802,169.280777 
	C223.007599,169.014938 222.998886,168.997742 223.007324,169.003052 
	C223.970642,168.259720 225.090485,167.738373 225.639557,166.670944 
	C225.319611,166.470413 225.363235,166.330505 225.434067,166.311737 
	C229.311356,163.480103 231.408356,159.481918 233.182037,154.895599 
	C233.200089,154.544174 233.268631,154.344727 233.362030,154.295776 
	C237.063339,151.159348 237.907532,146.523941 239.952332,142.565872 
	C240.761780,140.999054 240.952591,139.126266 242.614227,137.878113 
	C244.696335,138.456161 245.305191,137.466431 245.821487,136.044113 
	C246.712814,133.588669 245.229324,128.919128 250.833221,130.581757 
	C251.564957,130.798859 251.449966,129.283432 251.386230,128.498306 
	C251.191559,126.100708 251.444138,123.882645 254.067108,121.997955 
	C255.200378,126.302063 258.311157,128.900497 261.094177,131.860504 
	C265.218506,136.247086 264.880676,147.994888 260.997131,152.568741 
	C260.377380,153.298660 259.445709,154.404724 259.627441,155.073547 
	C261.183838,160.801483 257.192505,165.189407 256.087189,170.634995 
	C257.641327,173.104675 257.549927,174.817841 255.740036,177.075470 
	C253.644852,179.688934 252.086884,182.752274 252.021378,186.421631 
	C251.981781,188.639740 251.000870,190.656799 248.749252,191.919281 
	C246.906219,192.952728 246.155472,194.983444 245.410278,196.918671 
	C242.991989,203.198914 232.448471,210.210327 225.877686,210.248581 
	C224.339096,210.257553 223.208740,208.726242 221.321014,209.752106 
	C220.768997,210.211594 220.543167,210.431534 220.160263,210.828888 
	C217.795441,216.260086 212.027939,219.277618 211.006500,225.641724 
z"/>
<path fill="#4585A7" opacity="1.000000" stroke="none" 
	d="
M101.091103,267.662903 
	C100.936134,269.475189 100.870956,270.949158 100.903244,272.714447 
	C102.046585,274.319458 103.257690,275.467804 104.769852,276.772003 
	C104.998779,277.000000 105.000488,277.499390 105.001312,277.749084 
	C103.944786,282.768280 103.711899,287.156311 108.598946,290.363037 
	C110.407570,291.549805 110.447044,294.166382 110.989899,296.255463 
	C111.422867,297.921631 112.025780,299.965149 114.244484,298.624817 
	C119.539803,295.425995 124.245277,297.122620 127.769409,300.956085 
	C133.019836,306.667358 139.593002,306.924866 146.360336,306.933838 
	C155.308716,306.945709 164.278305,306.255829 173.198364,306.692596 
	C178.717255,306.962830 184.161453,307.544861 189.753006,307.472534 
	C196.289978,307.388000 197.820709,307.286530 200.765442,301.109772 
	C201.993164,298.534607 202.872574,294.652954 207.392059,299.292725 
	C207.074295,294.206696 209.471115,290.606689 211.052582,286.726532 
	C211.486084,285.662903 212.133362,284.454407 213.614731,284.986053 
	C214.776901,285.403137 214.561859,286.556580 214.566071,287.556641 
	C214.571777,288.907532 213.624496,291.148712 215.954880,290.987488 
	C218.219208,290.830841 217.489899,288.554382 217.504456,286.943481 
	C217.634445,272.560638 217.799744,258.178101 217.977325,243.396759 
	C218.523361,242.556900 219.119949,242.406555 220.168228,242.846893 
	C221.427170,245.903702 220.967987,248.741180 220.975021,251.536438 
	C221.020538,269.602386 221.006561,287.668549 220.987549,306.195374 
	C221.070724,308.935242 219.356781,310.401855 218.220367,312.603485 
	C217.974518,312.967773 218.000000,313.000580 217.983795,312.987427 
	C216.464264,313.856262 215.084000,314.942566 213.050308,315.795776 
	C208.902161,317.028351 205.096420,317.020477 201.269058,317.016632 
	C171.129654,316.986389 140.990112,316.964539 110.850876,317.038391 
	C106.336853,317.049469 101.921974,316.735046 97.200928,315.214600 
	C93.141922,313.001556 90.881874,309.991882 90.050552,305.440247 
	C89.986961,288.036865 89.985184,271.092072 90.051842,253.701843 
	C90.418678,252.061157 90.999687,250.908356 92.231438,252.285690 
	C93.374352,253.563690 94.167458,255.160172 95.703491,256.696411 
	C96.315269,257.111145 96.572243,257.303101 96.884033,257.787537 
	C97.525772,258.475189 97.459335,259.278900 98.252800,259.559570 
	C98.531891,259.359924 98.654587,259.411133 98.666344,259.476562 
	C98.278839,261.092010 99.764420,261.011780 100.672928,261.845642 
	C100.879562,262.081909 100.946770,262.069061 100.928833,262.098206 
	C101.275749,262.434814 101.514595,262.822510 101.763313,263.608765 
	C101.841736,265.106812 101.518211,266.217102 101.091103,267.662903 
z"/>
<path fill="#366B88" opacity="1.000000" stroke="none" 
	d="
M174.648102,85.117630 
	C174.832382,88.316292 172.545471,89.413925 169.401321,90.056030 
	C167.669342,91.792679 165.797028,92.415436 163.336487,92.740952 
	C161.895126,93.054695 160.848465,93.183563 159.423660,93.057327 
	C158.181076,92.901947 157.314514,92.615425 156.117126,92.865509 
	C155.112305,93.241821 154.352966,93.414177 153.399597,93.981735 
	C149.763290,95.671951 149.705505,98.772537 149.550049,101.766960 
	C149.218338,108.156792 151.346359,114.227921 152.052322,120.481674 
	C152.538498,124.788414 154.190887,128.896881 153.986847,133.638885 
	C159.080521,151.093033 168.430862,164.045517 187.384201,167.312408 
	C194.654358,168.565506 201.064957,165.938217 207.312637,162.712952 
	C208.762894,161.964264 209.935410,160.631500 212.101501,160.723602 
	C203.683792,169.617722 189.322708,172.077606 176.034103,166.066406 
	C163.071686,160.202759 156.997269,148.740707 152.252884,136.582138 
	C149.179428,128.705719 146.854996,120.429672 145.428207,111.988983 
	C144.522446,106.630638 144.187302,101.205246 145.231354,95.938309 
	C146.740585,88.324615 156.177765,85.149055 161.402527,86.945305 
	C165.916153,88.497093 170.443420,89.115067 174.648102,85.117630 
z"/>
<path fill="#366B88" opacity="1.000000" stroke="none" 
	d="
M220.325180,151.871826 
	C220.096817,149.402435 221.410904,147.247284 222.511520,145.013535 
	C229.307999,131.219788 232.880219,116.634674 233.020493,101.258354 
	C233.096069,92.973984 232.701279,92.653076 224.565567,90.725830 
	C223.813889,90.547775 223.170212,89.913933 222.270874,89.197037 
	C223.063736,88.925911 224.081329,89.087402 225.057404,88.951271 
	C232.917999,87.854919 234.771378,93.227028 234.965485,98.721992 
	C235.493073,113.657280 232.149612,127.800415 226.219971,141.431931 
	C224.649536,145.042175 223.081772,148.618088 220.325180,151.871826 
z"/>
<path fill="#3C708D" opacity="1.000000" stroke="none" 
	d="
M307.196808,103.208511 
	C305.545776,98.131996 303.666809,93.593697 298.293213,91.220482 
	C294.124298,89.855255 290.136902,90.574493 286.202332,90.544464 
	C274.427429,90.454605 262.650757,90.431992 250.449615,90.757706 
	C249.017258,91.455086 248.402344,92.251434 248.101624,93.655357 
	C248.868179,95.011497 248.319427,96.269966 248.754822,97.706680 
	C248.944260,98.452896 248.938583,98.900108 248.936401,99.682755 
	C247.961823,104.414230 248.795868,108.877159 248.224426,113.680992 
	C247.980530,114.813263 247.962082,115.561073 247.928360,116.682610 
	C247.586487,117.544258 247.310547,118.084114 246.418320,118.118904 
	C245.953491,114.179367 247.199249,110.528389 247.069809,106.684013 
	C246.875702,100.919395 247.179764,95.144905 244.909576,88.992355 
	C253.001633,88.992355 260.614624,88.993568 268.227600,88.992012 
	C275.886810,88.990440 283.546051,88.987503 291.205261,88.982689 
	C302.545654,88.975555 306.255280,91.960083 308.868256,103.643768 
	C308.091949,104.393906 307.706207,103.985031 307.196808,103.208511 
z"/>
<path fill="#34708F" opacity="1.000000" stroke="none" 
	d="
M95.815659,314.170227 
	C101.005814,315.543640 106.079643,316.031036 111.301140,316.014404 
	C140.609818,315.921234 169.918976,315.941986 199.227890,315.977631 
	C203.900528,315.983307 208.546921,315.900635 213.565247,314.920929 
	C214.139130,315.095703 214.288391,315.306763 214.227783,315.843872 
	C213.222672,317.467773 211.914291,316.849670 210.465012,317.030334 
	C209.049438,317.728241 207.851883,317.491364 206.704865,317.490723 
	C172.054794,317.471222 137.404678,317.562103 102.298409,317.254913 
	C99.970474,316.757996 97.802147,317.727966 96.146957,315.443237 
	C95.840454,314.903198 95.706528,314.685211 95.815659,314.170227 
z"/>
<path fill="#356B88" opacity="1.000000" stroke="none" 
	d="
M154.958664,165.658783 
	C149.879898,163.735458 147.868546,158.814621 145.306992,154.467606 
	C137.171677,140.661789 133.560211,125.393272 131.164230,109.341782 
	C132.059845,107.758644 130.865616,106.029373 132.447266,104.959496 
	C134.676727,124.658524 139.605957,143.268600 150.862366,159.851120 
	C152.150635,161.748947 154.433044,162.871597 154.958664,165.658783 
z"/>
<path fill="#49748C" opacity="1.000000" stroke="none" 
	d="
M102.139122,317.375092 
	C137.614502,317.046234 173.386826,317.035797 209.635162,317.029663 
	C209.158249,318.367371 207.720474,317.970612 206.456329,317.971436 
	C172.603180,317.993835 138.750015,317.990814 104.896851,317.975983 
	C104.076546,317.975647 103.256325,317.791809 102.139122,317.375092 
z"/>
<path fill="#2E7396" opacity="1.000000" stroke="none" 
	d="
M306.929871,103.365486 
	C307.465698,103.228485 307.908081,103.492874 308.570831,103.892365 
	C308.855011,106.715462 308.918793,109.403450 308.926727,112.538177 
	C308.057892,116.854485 308.712311,120.770668 308.499969,125.122986 
	C308.520935,142.731491 308.457916,159.876358 308.671936,177.476746 
	C308.737823,178.538391 308.663483,179.144440 308.306641,179.895050 
	C306.703522,177.747803 306.986511,175.216492 306.983521,172.744995 
	C306.962067,155.023071 306.903168,137.300735 307.003021,119.579361 
	C307.032745,114.304543 305.078979,109.052124 306.929871,103.365486 
z"/>
<path fill="#2B688C" opacity="1.000000" stroke="none" 
	d="
M15.037804,224.527863 
	C34.810184,224.019928 54.634319,224.011475 74.458405,223.977341 
	C82.680382,223.963181 82.835487,223.749527 82.995834,215.616806 
	C83.034836,213.639267 83.396568,211.668121 83.789612,209.320190 
	C86.629921,214.025375 84.223068,219.080917 83.815857,224.573563 
	C82.858475,225.670975 81.830894,225.493378 80.848663,225.493774 
	C59.892651,225.502136 38.936638,225.502029 17.980625,225.493973 
	C16.997408,225.493591 15.971733,225.666031 15.037804,224.527863 
z"/>
<path fill="#467087" opacity="1.000000" stroke="none" 
	d="
M218.317078,312.850342 
	C217.983124,311.297150 218.772675,309.926849 219.841156,308.308685 
	C220.897110,306.462952 220.476166,304.763092 220.479050,303.132446 
	C220.512009,284.507935 220.697311,265.880096 220.391495,247.260529 
	C220.286469,240.865143 220.291534,234.518951 221.383057,228.092102 
	C221.916168,253.984619 221.948883,279.949005 222.035812,305.913208 
	C222.045563,308.822632 220.813797,310.969269 218.317078,312.850342 
z"/>
<path fill="#316C89" opacity="1.000000" stroke="none" 
	d="
M221.926422,227.698654 
	C220.725967,230.551178 220.996521,233.246201 220.994797,235.897507 
	C220.980820,257.378601 220.995331,278.859711 220.981766,300.340820 
	C220.980286,302.661804 221.196899,305.014343 220.187714,307.643768 
	C220.001099,286.664459 219.976852,265.304565 219.938568,243.476776 
	C218.688797,241.732010 218.020554,240.370667 219.597809,238.349243 
	C220.504257,234.173706 218.904266,230.238525 220.797577,226.223145 
	C221.200043,225.834488 221.403473,225.723801 221.865616,225.844925 
	C222.077988,226.510178 222.031662,226.943588 221.926422,227.698654 
z"/>
<path fill="#366B89" opacity="1.000000" stroke="none" 
	d="
M106.859116,245.615723 
	C107.641312,249.028961 110.783264,250.447708 111.933716,253.637268 
	C104.596550,250.876633 102.378296,243.691360 99.343239,237.336700 
	C97.840622,234.190598 96.451553,230.689835 96.966248,226.508026 
	C95.986877,219.744263 96.722832,213.362396 96.673347,206.576447 
	C97.055595,205.978592 97.295235,205.805252 97.967087,205.708374 
	C100.190994,207.361313 100.530350,209.505432 100.424385,211.671021 
	C99.850830,223.392410 102.242615,234.520645 106.859116,245.615723 
z"/>
<path fill="#467288" opacity="1.000000" stroke="none" 
	d="
M222.585251,226.053223 
	C221.936218,226.056076 221.748108,226.035385 221.278320,225.979950 
	C220.996628,225.945175 221.049545,225.457977 221.072968,225.214081 
	C222.823517,224.067978 224.682800,224.528839 226.473389,224.523331 
	C249.695053,224.451828 272.916962,224.572784 296.575073,224.227051 
	C297.011505,224.008820 297.002075,224.005310 297.000977,224.011139 
	C297.730499,223.358475 298.625946,223.480042 299.838684,223.764999 
	C298.304718,226.125214 295.823090,226.011612 293.327393,226.010605 
	C269.900330,226.001205 246.473251,226.019455 222.585251,226.053223 
z"/>
<path fill="#3D718B" opacity="1.000000" stroke="none" 
	d="
M95.856171,313.616028 
	C96.044327,314.081146 96.029922,314.289032 95.994949,314.809052 
	C90.137306,312.976959 89.114006,307.899170 89.064552,302.746857 
	C88.895782,285.161041 89.028343,267.572388 89.106369,249.523499 
	C90.459892,248.933762 90.675812,249.847397 90.775139,251.267090 
	C90.272591,269.530792 90.560219,287.331116 90.767776,305.556915 
	C91.590744,309.042511 93.614021,311.205811 95.856171,313.616028 
z"/>
<path fill="#396B85" opacity="1.000000" stroke="none" 
	d="
M90.757698,171.397079 
	C95.306335,170.592636 98.824165,172.503021 101.516708,175.400070 
	C104.085838,178.164352 105.572586,181.558014 103.732399,185.646866 
	C101.578194,190.433472 97.563171,192.222931 92.854233,192.929398 
	C91.094315,193.193420 89.239655,192.825928 87.198807,192.091919 
	C87.783562,189.582550 89.250595,188.722321 91.224022,188.498764 
	C92.711502,188.330261 94.146935,187.890533 95.477921,187.176880 
	C100.272202,184.606247 100.347542,180.067673 95.769684,177.061920 
	C93.806511,175.772903 90.654396,176.092819 90.067993,172.596832 
	C90.245834,172.046158 90.376144,171.847763 90.757698,171.397079 
z"/>
<path fill="#467288" opacity="1.000000" stroke="none" 
	d="
M14.648197,224.033600 
	C17.321993,225.244186 19.855299,224.995819 22.342026,224.997696 
	C42.504719,225.012848 62.667423,225.008377 83.281441,225.005447 
	C82.500374,226.681686 80.688667,225.959381 79.152748,225.963257 
	C58.111248,226.016510 37.069511,225.975540 16.027977,226.022354 
	C13.988219,226.026901 12.106491,225.763229 10.126875,224.390976 
	C10.662585,224.054321 11.427755,224.040878 12.574837,224.025253 
	C13.407939,224.024841 13.859130,224.026642 14.648197,224.033600 
z"/>
<path fill="#366B87" opacity="1.000000" stroke="none" 
	d="
M245.969681,118.324142 
	C246.595856,117.744469 247.034714,117.511429 247.693329,117.167358 
	C247.067459,123.958954 244.917587,130.548523 243.027679,137.593109 
	C241.152451,142.025970 239.367279,146.097672 237.475784,150.119354 
	C236.718140,151.730270 236.083572,153.527420 233.791565,154.218445 
	C239.857376,143.182632 242.944672,130.969955 245.969681,118.324142 
z"/>
<path fill="#356B88" opacity="1.000000" stroke="none" 
	d="
M180.353973,239.859695 
	C179.601837,238.940948 179.297867,237.759323 179.850464,236.664841 
	C184.944794,226.574875 184.028381,215.709091 184.022781,204.954834 
	C184.019516,198.652954 184.065308,192.351044 184.100113,185.588623 
	C186.528137,185.488678 185.433228,187.418655 185.439926,188.573257 
	C185.506775,200.114639 185.564560,211.657013 185.251526,223.644806 
	C184.915405,229.658798 183.235291,234.791672 180.353973,239.859695 
z"/>
<path fill="#476D82" opacity="1.000000" stroke="none" 
	d="
M199.239136,184.773743 
	C201.144211,197.104340 198.722733,209.173584 199.179382,221.233902 
	C199.231354,222.606201 199.049835,223.891083 197.510315,224.895294 
	C198.834808,213.846054 197.633026,202.582306 197.987106,191.353470 
	C198.065536,188.865997 198.015854,186.374466 198.095703,183.417725 
	C198.338379,182.853806 198.510529,182.756973 198.897675,182.863953 
	C199.112701,183.067764 199.064484,183.521317 199.044968,183.748535 
	C199.154083,184.149963 199.282715,184.324158 199.239136,184.773743 
z"/>
<path fill="#366B87" opacity="1.000000" stroke="none" 
	d="
M69.853127,195.670319 
	C62.178410,191.919449 60.925865,175.704208 68.707993,169.152100 
	C65.090286,177.898865 64.306816,186.699417 69.853127,195.670319 
z"/>
<path fill="#467288" opacity="1.000000" stroke="none" 
	d="
M221.913116,67.520920 
	C220.797684,65.617226 221.014145,63.100563 221.012619,60.620255 
	C221.001770,43.020699 221.011749,25.421131 221.014984,7.342998 
	C222.733643,8.298147 221.938049,10.261062 221.944107,11.962682 
	C222.009537,30.327297 221.983444,48.692238 221.913116,67.520920 
z"/>
<path fill="#366B89" opacity="1.000000" stroke="none" 
	d="
M112.138771,254.311768 
	C112.679810,254.092453 113.466316,253.998459 113.956963,254.335358 
	C123.793526,261.089569 134.963593,262.506439 146.886597,262.705444 
	C142.167679,264.272797 136.949493,263.176941 131.336029,263.252411 
	C123.771690,262.246918 117.487625,259.597412 112.138771,254.311768 
z"/>
<path fill="#336D8B" opacity="1.000000" stroke="none" 
	d="
M217.673859,87.111938 
	C214.286362,91.307816 211.029266,87.830597 208.312759,85.956940 
	C202.003632,81.605316 202.935806,73.594193 210.095078,70.753311 
	C205.257965,76.702942 204.588562,80.723320 208.572189,83.971840 
	C211.020966,85.968750 214.045837,86.941681 217.673859,87.111938 
z"/>
<path fill="#3E7787" opacity="1.000000" stroke="none" 
	d="
M308.876648,177.473572 
	C307.866882,175.727844 308.013306,173.392685 308.015381,171.080994 
	C308.028900,156.021332 308.054565,140.961655 308.090759,125.431030 
	C308.228973,124.749733 308.352661,124.539391 308.651886,124.650208 
	C308.865326,142.319168 308.903229,159.666992 308.876648,177.473572 
z"/>
<path fill="#2E7396" opacity="1.000000" stroke="none" 
	d="
M306.308289,215.261566 
	C306.571442,207.262070 307.113586,199.492462 307.847229,191.355164 
	C309.691040,198.717789 309.336212,206.466690 308.046448,214.593307 
	C307.508179,215.345215 307.095398,215.531586 306.308289,215.261566 
z"/>
<path fill="#396B85" opacity="1.000000" stroke="none" 
	d="
M176.104767,265.627197 
	C169.069382,271.408051 161.734482,275.894562 152.289703,276.104553 
	C159.633804,272.848724 167.632385,270.468292 174.561768,265.076965 
	C175.412613,264.602386 175.857498,264.708191 176.104767,265.627197 
z"/>
<path fill="#366B89" opacity="1.000000" stroke="none" 
	d="
M196.633392,230.213715 
	C199.029160,231.686661 197.904922,233.704193 197.283386,235.450729 
	C195.119141,241.532333 192.489059,247.406708 188.365005,252.863068 
	C187.891129,253.202225 187.673737,253.321045 187.167831,253.205627 
	C190.739182,245.754379 195.032242,238.718811 196.633392,230.213715 
z"/>
<path fill="#467087" opacity="1.000000" stroke="none" 
	d="
M185.389740,223.819855 
	C185.030899,213.149857 185.035385,202.208771 184.962738,191.268204 
	C184.950760,189.464478 184.600525,187.662979 184.258911,185.494293 
	C184.071426,184.692230 184.031662,184.256332 183.961685,183.494934 
	C183.695190,181.977646 182.043488,182.887817 181.906296,181.459015 
	C184.612457,180.639679 186.064194,181.215500 186.020844,184.331528 
	C185.838959,197.402817 185.811386,210.476288 185.389740,223.819855 
z"/>
<path fill="#396B85" opacity="1.000000" stroke="none" 
	d="
M114.982773,174.448090 
	C119.317474,177.233704 117.666252,181.895264 117.899780,186.535858 
	C120.409042,191.711044 117.616982,194.862671 114.224243,198.091675 
	C113.250587,198.319702 112.686874,198.296753 111.549789,197.566330 
	C115.125786,190.112244 118.116737,183.038055 114.982773,174.448090 
z"/>
<path fill="#396B85" opacity="1.000000" stroke="none" 
	d="
M118.253342,275.242065 
	C117.233109,274.690735 116.480232,274.394562 115.431564,274.028442 
	C111.429825,272.313354 107.032982,271.669556 105.689835,266.537231 
	C112.389755,270.214874 119.253220,273.312012 126.813095,275.637177 
	C126.234756,276.251556 125.456276,276.556732 124.364105,276.908813 
	C122.028908,277.145447 120.105637,276.962738 118.253342,275.242065 
z"/>
<path fill="#356B88" opacity="1.000000" stroke="none" 
	d="
M181.683533,181.012848 
	C182.640533,181.720016 183.255783,182.247574 183.901245,182.972290 
	C176.676056,181.911026 169.565704,180.317719 164.125458,174.308578 
	C169.653381,176.628265 175.240662,179.380203 181.683533,181.012848 
z"/>
<path fill="#366B88" opacity="1.000000" stroke="none" 
	d="
M155.371918,70.991463 
	C157.102631,66.505814 161.094925,65.739014 165.340332,66.215004 
	C169.148834,66.641998 172.835175,67.764450 173.923798,72.664246 
	C165.943924,65.501244 161.727020,67.222839 155.371918,70.991463 
z"/>
<path fill="#366B89" opacity="1.000000" stroke="none" 
	d="
M90.604675,171.085022 
	C91.008934,171.144791 91.013176,171.548340 91.014603,171.750122 
	C90.462708,173.095261 90.653610,174.672119 89.096581,175.230484 
	C84.494865,176.880722 82.208702,180.178162 82.038353,185.038574 
	C82.014519,185.718674 81.327873,186.128021 80.497238,186.698730 
	C79.657776,186.788788 79.191032,186.657120 78.457855,186.209808 
	C78.168121,185.980484 78.034363,185.550735 77.998642,185.328552 
	C77.593048,184.564926 77.476738,183.973602 77.726814,182.877884 
	C77.839600,182.423370 77.352089,182.412308 77.352089,182.412308 
	C77.352089,182.412308 77.281685,181.929886 77.475410,181.782227 
	C77.642853,181.331329 77.616562,181.028091 77.776917,180.308167 
	C80.154869,173.721146 83.558113,171.255295 90.604675,171.085022 
z"/>
<path fill="#356B88" opacity="1.000000" stroke="none" 
	d="
M168.353775,253.973907 
	C171.173416,248.892868 175.175613,244.471497 179.732513,240.140594 
	C177.844894,245.958862 173.883743,250.449020 168.353775,253.973907 
z"/>
<path fill="#366B87" opacity="1.000000" stroke="none" 
	d="
M199.481934,183.007324 
	C199.112701,183.067764 198.639725,183.007019 198.402985,182.978821 
	C197.995056,180.653412 199.895859,180.354599 201.335800,180.083832 
	C205.649796,179.272690 209.619873,177.572311 213.887100,175.658295 
	C212.778458,179.968307 208.263885,179.681793 205.050278,181.339813 
	C203.463287,182.158585 201.593185,182.428574 199.481934,183.007324 
z"/>
<path fill="#366B89" opacity="1.000000" stroke="none" 
	d="
M149.414917,262.996948 
	C153.297501,259.706970 158.277939,258.072235 163.761963,256.996460 
	C160.160873,261.083191 154.964966,261.982635 149.414917,262.996948 
z"/>
<path fill="#366B87" opacity="1.000000" stroke="none" 
	d="
M232.936050,154.737289 
	C233.095291,159.796478 230.625534,163.638702 225.845795,166.299927 
	C227.893936,162.505447 230.282974,158.717926 232.936050,154.737289 
z"/>
<path fill="#396B85" opacity="1.000000" stroke="none" 
	d="
M96.814621,157.743835 
	C101.463051,158.325851 105.210228,159.693420 107.882347,163.688141 
	C103.051666,162.007690 98.666306,158.336456 92.426605,158.925125 
	C92.838013,156.307922 94.937874,157.967453 96.814621,157.743835 
z"/>
<path fill="#2B688C" opacity="1.000000" stroke="none" 
	d="
M96.867142,157.760529 
	C95.708519,158.154190 94.203392,158.373260 92.352028,158.733704 
	C89.640785,158.925888 87.275787,158.976685 84.526978,159.028122 
	C83.348770,159.666138 82.425293,159.471436 81.152298,159.176666 
	C85.848030,156.375168 91.082909,155.782425 96.867142,157.760529 
z"/>
<path fill="#37647D" opacity="1.000000" stroke="none" 
	d="
M90.164597,251.163391 
	C89.799477,250.455154 89.608437,249.981674 89.292114,249.285202 
	C89.015144,248.117325 87.197891,247.206207 88.913521,246.259949 
	C89.839340,245.749313 90.730278,246.098801 91.010849,247.441345 
	C91.731514,250.889816 94.276962,253.352386 95.982635,256.638672 
	C93.664764,256.398987 92.836456,254.265503 91.322708,252.378510 
	C90.700005,252.053116 90.450493,251.796875 90.164597,251.163391 
z"/>
<path fill="#476D82" opacity="1.000000" stroke="none" 
	d="
M98.291458,205.872040 
	C95.991241,212.250214 97.450325,218.746582 96.960342,225.615219 
	C94.957169,219.295319 96.253288,212.384979 96.314354,205.525009 
	C96.318604,205.047318 97.518051,204.580276 98.562897,204.126129 
	C99.415733,204.819626 99.150391,205.344055 98.291458,205.872040 
z"/>
<path fill="#366B88" opacity="1.000000" stroke="none" 
	d="
M145.314667,76.824837 
	C146.988770,73.090012 151.457291,73.485886 154.643539,71.074806 
	C154.011948,76.303680 148.878647,75.074654 145.314667,76.824837 
z"/>
<path fill="#396B85" opacity="1.000000" stroke="none" 
	d="
M98.015076,205.987610 
	C98.219002,205.486252 98.467590,205.039413 98.840134,204.368286 
	C101.917030,202.649979 104.869965,201.156006 108.108704,199.455078 
	C108.683540,199.270432 108.972595,199.292725 109.540512,199.650574 
	C110.425392,201.559860 109.328384,202.794250 108.703796,204.522247 
	C105.282127,205.877914 102.599480,209.216721 98.462944,206.459274 
	C98.150208,206.150269 98.059746,206.042145 98.015076,205.987610 
z"/>
<path fill="#366B88" opacity="1.000000" stroke="none" 
	d="
M173.980637,73.428650 
	C178.572968,77.993729 178.952286,80.629639 175.324158,84.865112 
	C177.698441,80.994591 174.666748,77.513077 173.980637,73.428650 
z"/>
<path fill="#23688F" opacity="1.000000" stroke="none" 
	d="
M132.866226,104.582123 
	C132.330399,106.150871 131.857010,107.285164 131.233673,108.683525 
	C131.074524,104.164246 130.448669,99.359161 131.776733,94.240807 
	C132.981613,94.880486 132.275864,96.181602 132.674164,97.660553 
	C132.849442,100.048645 132.889053,102.098152 132.866226,104.582123 
z"/>
<path fill="#366B88" opacity="1.000000" stroke="none" 
	d="
M132.869446,97.591370 
	C132.542618,96.860077 132.275406,95.721031 131.986450,94.223640 
	C132.374023,90.475731 132.829453,87.106194 136.207581,84.804573 
	C134.708099,88.710213 133.465012,92.844276 132.869446,97.591370 
z"/>
<path fill="#396B85" opacity="1.000000" stroke="none" 
	d="
M78.227852,186.311859 
	C78.599174,185.977417 79.030228,185.974365 79.784561,185.968307 
	C84.423584,185.284515 86.958809,186.963898 87.505783,191.376221 
	C87.244553,191.713547 87.065048,191.919754 86.975266,192.022827 
	C82.934982,191.999100 80.634842,189.284241 78.227852,186.311859 
z"/>
<path fill="#366B88" opacity="1.000000" stroke="none" 
	d="
M137.049896,84.264984 
	C136.841034,80.143150 139.728271,78.316223 143.595276,77.009262 
	C142.231369,79.816345 139.599670,81.793861 137.049896,84.264984 
z"/>
<path fill="#366B87" opacity="1.000000" stroke="none" 
	d="
M222.678940,169.112350 
	C221.744232,172.730621 219.062302,174.686401 214.907776,175.206451 
	C216.801636,172.715363 219.638779,171.044952 222.678940,169.112350 
z"/>
<path fill="#366B87" opacity="1.000000" stroke="none" 
	d="
M83.704376,205.713486 
	C80.283791,205.173294 76.650627,204.724884 74.733124,200.793976 
	C77.408226,202.657684 81.220993,202.814102 83.704376,205.713486 
z"/>
<path fill="#366B87" opacity="1.000000" stroke="none" 
	d="
M69.324646,168.897675 
	C69.496918,165.245926 71.742584,163.073944 75.658524,162.057007 
	C73.888115,164.271301 71.761375,166.523727 69.324646,168.897675 
z"/>
<path fill="#476D82" opacity="1.000000" stroke="none" 
	d="
M131.172668,263.378784 
	C136.022644,263.010345 141.157471,262.967346 146.790482,262.888489 
	C147.667801,262.874054 148.046936,262.895477 148.709808,262.962097 
	C143.219482,265.032959 137.314560,263.766510 131.172668,263.378784 
z"/>
<path fill="#396B85" opacity="1.000000" stroke="none" 
	d="
M110.124634,166.321121 
	C113.637276,167.055313 115.027542,169.659805 114.978592,173.630402 
	C113.381668,171.562851 111.812096,169.103851 110.124634,166.321121 
z"/>
<path fill="#2E6A89" opacity="1.000000" stroke="none" 
	d="
M300.519043,224.011993 
	C299.384705,224.035034 298.589691,224.029160 297.397278,224.020126 
	C299.608551,222.583054 302.217224,221.149155 305.172485,219.720978 
	C304.818420,222.079391 302.664551,222.840881 300.519043,224.011993 
z"/>
<path fill="#356B88" opacity="1.000000" stroke="none" 
	d="
M163.894791,173.664398 
	C161.164154,173.796814 159.196716,172.377975 158.022003,169.413391 
	C160.407272,169.803192 162.186920,171.447372 163.894791,173.664398 
z"/>
<path fill="#467288" opacity="1.000000" stroke="none" 
	d="
M308.895386,124.518143 
	C308.827454,124.971359 308.465179,124.968010 308.285217,124.964035 
	C308.105774,121.215179 307.620880,117.449944 308.723206,113.364990 
	C308.901672,116.678261 308.932465,120.371590 308.895386,124.518143 
z"/>
<path fill="#396B85" opacity="1.000000" stroke="none" 
	d="
M135.461975,277.002991 
	C133.604935,277.905243 131.456406,278.420197 129.216095,276.482788 
	C131.045975,276.121857 133.195740,275.384888 135.461975,277.002991 
z"/>
<path fill="#366B87" opacity="1.000000" stroke="none" 
	d="
M74.289612,199.991150 
	C71.729660,200.661636 70.590813,199.080978 70.024078,196.382172 
	C71.367805,197.261353 72.744286,198.499054 74.289612,199.991150 
z"/>
<path fill="#2E6A89" opacity="1.000000" stroke="none" 
	d="
M305.913086,215.391052 
	C306.431305,215.014633 306.833313,214.997589 307.537170,214.972412 
	C308.096924,216.625061 307.073944,217.801056 306.023621,219.246841 
	C305.259460,218.196747 305.354095,216.971878 305.913086,215.391052 
z"/>
<path fill="#467087" opacity="1.000000" stroke="none" 
	d="
M214.346741,316.093445 
	C214.013306,315.956116 214.008652,315.742249 213.996918,315.206512 
	C214.894928,313.902679 215.962540,313.209900 217.639496,312.995789 
	C217.270920,314.421997 216.307709,315.581360 214.346741,316.093445 
z"/>
<path fill="#396B85" opacity="1.000000" stroke="none" 
	d="
M149.644638,276.126221 
	C149.010284,277.631165 147.565277,277.979523 145.514130,277.749817 
	C145.114243,277.712555 145.180817,277.634033 145.148270,277.665955 
	C145.265610,277.447632 145.415482,277.197388 145.767456,276.559082 
	C147.060608,276.127808 148.151672,276.084595 149.644638,276.126221 
z"/>
<path fill="#396B85" opacity="1.000000" stroke="none" 
	d="
M101.779648,263.306763 
	C103.267723,263.748749 104.523804,264.540863 105.931503,265.618774 
	C106.083130,265.904602 105.863235,266.141663 105.753235,266.260132 
	C103.863297,267.541168 102.504677,267.045868 101.419083,264.897522 
	C101.434708,264.205292 101.491180,263.931061 101.779648,263.306763 
z"/>
<path fill="#37647D" opacity="1.000000" stroke="none" 
	d="
M186.587494,253.109131 
	C187.084183,252.988464 187.289017,253.005554 187.801178,253.053040 
	C187.602859,254.288254 186.897537,255.312424 185.323547,255.918488 
	C184.835236,254.808289 185.383072,253.943390 186.587494,253.109131 
z"/>
<path fill="#366B88" opacity="1.000000" stroke="none" 
	d="
M215.264832,157.846069 
	C215.246490,156.223251 216.147202,155.084900 218.199661,154.684143 
	C217.544159,155.715515 216.556366,156.746323 215.264832,157.846069 
z"/>
<path fill="#366B87" opacity="1.000000" stroke="none" 
	d="
M80.535980,159.033127 
	C81.620453,158.946121 82.462608,158.973587 83.723969,159.014908 
	C83.051155,160.677399 80.877998,159.426254 79.294250,160.731903 
	C79.391579,160.221939 79.842621,159.684769 80.535980,159.033127 
z"/>
<path fill="#336D8B" opacity="1.000000" stroke="none" 
	d="
M211.029907,70.381897 
	C211.109146,69.063271 211.949493,68.341927 213.754395,68.879379 
	C213.514648,70.347061 212.190308,69.802597 211.029907,70.381897 
z"/>
<path fill="#396B85" opacity="1.000000" stroke="none" 
	d="
M108.553558,199.447998 
	C109.075584,198.569183 109.756668,197.890213 110.704712,197.093155 
	C110.971664,196.975067 111.282509,197.288422 111.437889,197.445145 
	C112.226845,199.362961 111.784714,200.452347 109.394196,200.296417 
	C108.927864,199.911774 108.820244,199.779816 108.553558,199.447998 
z"/>
<path fill="#37647D" opacity="1.000000" stroke="none" 
	d="
M100.850479,261.789917 
	C99.711449,261.944489 98.866455,261.427246 98.660599,259.860657 
	C99.392532,260.193970 100.106956,260.845947 100.850479,261.789917 
z"/>
<path fill="#366B88" opacity="1.000000" stroke="none" 
	d="
M218.969360,154.289734 
	C218.602798,153.609924 218.840286,152.892029 219.743515,152.161377 
	C219.735672,152.707626 219.475296,153.415192 218.969360,154.289734 
z"/>
<path fill="#356B88" opacity="1.000000" stroke="none" 
	d="
M164.355728,257.049316 
	C164.665375,256.620514 165.269913,256.162567 166.172302,255.712646 
	C166.068283,256.440338 165.545135,256.990265 164.355728,257.049316 
z"/>
<path fill="#366B87" opacity="1.000000" stroke="none" 
	d="
M225.082947,166.639954 
	C225.311386,167.658249 224.714005,168.427368 223.322220,168.929047 
	C223.625931,168.275406 224.236099,167.542435 225.082947,166.639954 
z"/>
<path fill="#2E7396" opacity="1.000000" stroke="none" 
	d="
M144.391006,277.071625 
	C143.694260,278.234039 142.475906,278.789459 140.610504,277.648315 
	C141.514267,277.244812 142.755966,277.143921 144.391006,277.071625 
z"/>
<path fill="#37647D" opacity="1.000000" stroke="none" 
	d="
M184.726898,256.100647 
	C184.540390,256.620453 184.069016,257.222015 183.316864,257.920929 
	C183.504745,257.406342 183.973404,256.794373 184.726898,256.100647 
z"/>
<path fill="#37647D" opacity="1.000000" stroke="none" 
	d="
M176.196228,265.802185 
	C175.758102,265.768738 175.508011,265.521576 175.062317,265.097595 
	C175.372498,264.622437 175.878250,264.324066 176.695648,264.021362 
	C176.799622,264.540802 176.591934,265.064636 176.196228,265.802185 
z"/>
<path fill="#396B85" opacity="1.000000" stroke="none" 
	d="
M77.554062,182.607971 
	C77.870186,183.019577 77.900772,183.615799 77.947136,184.659195 
	C76.935875,184.573883 77.002937,183.713028 77.554062,182.607971 
z"/>
<path fill="#366B89" opacity="1.000000" stroke="none" 
	d="
M197.145111,227.232513 
	C197.373505,227.161880 197.579697,227.356934 197.729416,227.588501 
	C197.759842,227.635574 197.577454,227.820251 197.365570,227.999847 
	C197.192978,227.875824 197.147964,227.693451 197.145111,227.232513 
z"/>
<path fill="#366B88" opacity="1.000000" stroke="none" 
	d="
M212.954132,160.380798 
	C212.988693,160.095032 213.233612,159.657944 213.705963,159.094421 
	C213.677078,159.388489 213.420792,159.808975 212.954132,160.380798 
z"/>
<path fill="#37647D" opacity="1.000000" stroke="none" 
	d="
M101.902222,262.733215 
	C102.006355,263.153809 102.001076,263.350952 101.986565,263.843811 
	C101.801399,264.216339 101.625465,264.293182 101.237694,264.174927 
	C100.977638,263.568909 100.929413,263.157928 100.896042,262.437134 
	C101.273109,262.097473 101.567078,262.224976 101.902222,262.733215 
z"/>
<path fill="#37647D" opacity="1.000000" stroke="none" 
	d="
M98.389984,259.133362 
	C98.092300,259.077209 97.652710,258.794495 97.104568,258.257599 
	C97.413383,258.304535 97.830734,258.605652 98.389984,259.133362 
z"/>
<path fill="#356B88" opacity="1.000000" stroke="none" 
	d="
M166.888443,255.392944 
	C166.954224,255.109116 167.235565,254.674286 167.760925,254.122467 
	C167.704636,254.417633 167.404312,254.829803 166.888443,255.392944 
z"/>
<path fill="#356B88" opacity="1.000000" stroke="none" 
	d="
M155.903091,166.764587 
	C155.664398,166.876236 155.426163,166.679276 155.111282,166.229523 
	C155.280365,166.189590 155.570007,166.349335 155.903091,166.764587 
z"/>
<path fill="#396B85" opacity="1.000000" stroke="none" 
	d="
M109.071014,165.249908 
	C109.301743,165.140808 109.546707,165.339035 109.875046,165.792053 
	C109.710754,165.830017 109.419701,165.666824 109.071014,165.249908 
z"/>
<path fill="#366B87" opacity="1.000000" stroke="none" 
	d="
M77.235558,161.756195 
	C77.141891,161.497192 77.331085,161.302628 77.755264,161.075531 
	C77.952446,161.358200 77.795174,161.617416 77.235558,161.756195 
z"/>
<path fill="#356B88" opacity="1.000000" stroke="none" 
	d="
M156.873871,167.785599 
	C156.631882,167.904160 156.394028,167.712326 156.091736,167.259323 
	C156.262772,167.216797 156.546356,167.375824 156.873871,167.785599 
z"/>
<path fill="#2E7396" opacity="1.000000" stroke="none" 
	d="
M145.657120,276.244080 
	C145.849579,276.436951 145.729614,276.702942 145.362671,277.333374 
	C144.218964,277.076233 145.132217,276.754791 145.657120,276.244080 
z"/>
<path fill="#37647D" opacity="1.000000" stroke="none" 
	d="
M181.763550,259.089111 
	C181.884995,259.325958 181.692932,259.573792 181.230286,259.889252 
	C181.188004,259.721527 181.351456,259.435944 181.763550,259.089111 
z"/>
<path fill="#356B88" opacity="1.000000" stroke="none" 
	d="
M157.872757,168.786102 
	C157.631134,168.911621 157.391769,168.725540 157.082947,168.281525 
	C157.253464,168.234589 157.540634,168.384903 157.872757,168.786102 
z"/>
<path fill="#2E7396" opacity="1.000000" stroke="none" 
	d="
M308.246765,187.963562 
	C308.015289,187.860138 308.011139,187.679276 308.014221,187.227127 
	C308.266968,187.137207 308.516907,187.313583 308.744537,187.515167 
	C308.755402,187.524750 308.568787,187.757385 308.246765,187.963562 
z"/>
<path fill="#396B85" opacity="1.000000" stroke="none" 
	d="
M77.720345,180.041840 
	C77.918175,180.182556 77.872780,180.473602 77.748260,181.199600 
	C77.089760,181.222366 77.127991,180.727951 77.720345,180.041840 
z"/>
<path fill="#3C708D" opacity="1.000000" stroke="none" 
	d="
M13.339531,90.256119 
	C8.943662,92.399307 5.571413,95.304207 3.297671,99.764206 
	C2.835377,99.788971 2.570593,99.547943 2.119580,99.114418 
	C4.467168,92.169991 9.016443,88.993210 16.148169,88.991676 
	C40.103912,88.986542 64.059662,88.980484 88.479828,88.949074 
	C88.949242,89.100052 88.954224,89.276733 88.961197,89.718536 
	C87.930000,90.756844 86.726982,90.490158 85.587891,90.489334 
	C61.656734,90.471886 37.725513,90.563553 13.339531,90.256119 
z"/>
<path fill="#3F7590" opacity="1.000000" stroke="none" 
	d="
M90.211586,88.544983 
	C89.805504,88.979233 89.630714,88.975784 89.193924,88.961960 
	C88.967262,62.942135 89.002602,36.932697 89.107040,10.458721 
	C89.314911,9.847497 89.453674,9.700814 89.795959,9.778452 
	C89.999474,10.002772 89.999001,9.999862 89.995163,10.000887 
	C90.666245,10.871676 90.494919,11.897906 90.493767,12.879074 
	C90.464249,37.955132 90.575623,63.031296 90.211586,88.544983 
z"/>
<path fill="#2C749A" opacity="1.000000" stroke="none" 
	d="
M89.995071,9.733505 
	C89.999474,10.002772 89.587608,9.998275 89.381882,9.996227 
	C89.286606,9.700737 89.397064,9.407294 89.741852,9.019840 
	C89.980995,9.105299 89.985832,9.284769 89.995071,9.733505 
z"/>
<path fill="#4A8CB2" opacity="1.000000" stroke="none" 
	d="
M3.071811,105.577171 
	C4.092559,107.142105 3.995244,109.320625 3.994773,111.480461 
	C3.987446,145.074936 3.975583,178.669418 3.955045,212.758789 
	C3.945320,213.253677 3.490899,213.158707 3.261903,213.124191 
	C3.037676,177.404312 3.042445,141.718933 3.071811,105.577171 
z"/>
<path fill="#2C749A" opacity="1.000000" stroke="none" 
	d="
M90.159760,88.612343 
	C89.984505,62.968060 89.988716,36.953438 89.992126,10.470364 
	C90.159454,9.994111 90.327599,9.986310 90.747986,9.966457 
	C90.999840,33.747482 91.005287,57.540565 90.989792,81.333633 
	C90.988289,83.650719 91.239998,86.004242 90.159760,88.612343 
z"/>
<path fill="#4581A3" opacity="1.000000" stroke="none" 
	d="
M98.120148,206.603409 
	C100.830597,205.173874 103.510986,204.197479 106.510864,203.078857 
	C109.255020,201.734360 112.333435,201.232376 112.769768,197.372391 
	C114.997643,194.167221 116.548012,191.016144 117.713692,187.295990 
	C123.477997,187.568741 124.850243,192.309845 126.321175,196.354630 
	C129.364059,204.722046 129.123001,213.656342 129.492355,222.400848 
	C129.647430,226.072266 126.946640,229.191864 124.755264,232.069427 
	C123.371796,233.886078 121.701233,235.477234 120.366051,237.403534 
	C118.011314,240.800735 113.843849,240.872757 111.185249,237.724426 
	C110.334274,236.716675 109.847321,235.111862 108.202400,236.316437 
	C107.014397,237.186386 107.057693,238.640182 107.354462,239.986526 
	C107.620049,241.191376 108.497459,241.945724 109.423996,242.686569 
	C110.653793,243.669876 112.927185,244.501511 111.871773,246.400604 
	C110.752205,248.415100 108.958687,246.322571 107.118324,246.104462 
	C100.034653,239.182098 98.726624,230.366241 98.103745,221.411301 
	C97.772491,216.649094 98.074120,211.842896 98.120148,206.603409 
z"/>
<path fill="#4581A3" opacity="1.000000" stroke="none" 
	d="
M154.713989,89.363823 
	C156.042664,89.091751 157.116898,89.044685 158.594452,89.005051 
	C159.638702,89.778152 160.481705,90.015381 161.781891,89.918976 
	C164.137833,89.949951 166.153427,90.009079 168.604309,90.093430 
	C174.398285,90.360023 178.972839,91.540146 179.167664,98.267387 
	C179.177307,98.600609 180.239105,99.205254 180.780762,99.173172 
	C184.936218,98.927116 185.938293,102.221886 187.317169,104.974121 
	C188.353241,107.042099 188.826706,109.418900 190.013382,111.377922 
	C191.627991,114.043457 194.534698,116.390724 190.558289,119.335609 
	C186.227112,122.543236 181.105621,122.847031 178.441055,119.225922 
	C175.015381,114.570450 170.186707,114.696686 165.505188,114.339653 
	C162.163513,114.084793 160.314972,116.292145 160.268784,119.648056 
	C160.244171,121.435280 160.585770,123.227539 160.762161,125.018211 
	C158.761993,126.118591 157.417053,121.679451 155.679245,124.604347 
	C154.473267,126.634132 155.734314,128.416824 156.927139,130.066711 
	C157.121658,130.335785 157.334244,130.593689 157.508057,130.875534 
	C158.536102,132.542526 160.656158,134.654907 159.250549,136.149200 
	C157.316269,138.205536 156.437485,134.194153 154.182648,134.103760 
	C148.759827,122.373764 146.625702,110.192589 147.205673,97.554062 
	C147.341202,94.600685 149.084457,92.278763 151.761780,90.339905 
	C153.040161,90.757919 153.756302,90.200394 154.713989,89.363823 
z"/>
<path fill="#2A719A" opacity="1.000000" stroke="none" 
	d="
M13.268538,90.235489 
	C37.934280,90.038780 62.983921,90.017365 88.498375,89.989807 
	C87.471954,90.848907 85.826500,90.983093 84.157326,90.983261 
	C61.960175,90.985443 39.763012,90.994492 17.565916,90.960327 
	C16.261143,90.958321 14.956916,90.602142 13.268538,90.235489 
z"/>
<path fill="#4581A3" opacity="1.000000" stroke="none" 
	d="
M221.333115,210.104446 
	C221.692734,208.913895 222.686264,208.309616 223.951782,208.600723 
	C227.676529,209.457535 230.475998,208.371429 232.299606,204.929062 
	C232.519424,204.514114 232.971878,203.997787 233.376434,203.938690 
	C240.637451,202.877930 243.318161,196.826187 246.837448,191.683182 
	C247.118378,191.272644 247.694153,190.925217 247.734756,190.509567 
	C248.433853,183.353134 252.268951,177.584930 255.975464,171.372955 
	C258.089630,172.015244 259.069061,173.690506 258.297577,175.901154 
	C256.923676,179.838028 257.587952,183.808945 257.850739,187.762405 
	C258.121704,191.838638 257.066162,194.260544 252.304260,193.637390 
	C247.664810,193.030228 246.902176,196.512619 247.175079,199.746841 
	C247.548340,204.170395 247.274460,206.512924 241.640182,206.966766 
	C237.264771,207.319199 233.283218,210.803009 228.466766,211.145065 
	C226.075272,211.314896 223.831055,211.281342 221.333115,210.104446 
z"/>
<path fill="#2E6A89" opacity="1.000000" stroke="none" 
	d="
M296.541931,224.003784 
	C294.689087,225.203033 292.169434,224.997757 289.692047,224.998306 
	C267.132721,225.003189 244.573410,224.989883 221.555237,224.976028 
	C223.059937,223.770264 225.255219,223.989944 227.396988,223.989212 
	C250.288773,223.981445 273.180573,223.992722 296.541931,224.003784 
z"/>
<path fill="#2A719A" opacity="1.000000" stroke="none" 
	d="
M250.490143,90.970917 
	C251.718582,90.128792 253.538376,90.007996 255.383484,90.007362 
	C267.874603,90.003082 280.365784,89.971489 292.856689,90.016975 
	C294.327667,90.022331 295.797119,90.442818 297.642700,90.850037 
	C282.330750,91.012138 266.643402,90.995056 250.490143,90.970917 
z"/>
<path fill="#4581A3" opacity="1.000000" stroke="none" 
	d="
M211.212311,225.738861 
	C209.951096,224.083069 209.901337,222.151123 211.323776,220.458191 
	C213.944870,217.338745 216.684174,214.318619 219.685852,211.128738 
	C218.898346,216.867310 213.961243,220.462204 211.212311,225.738861 
z"/>
<path fill="#4581A3" opacity="1.000000" stroke="none" 
	d="
M219.588120,237.916626 
	C219.927689,239.375137 219.945862,240.773178 219.944275,242.590027 
	C219.497086,243.005859 219.069656,243.002869 218.321106,242.998962 
	C216.205338,243.258163 214.098099,243.703140 214.364243,240.862885 
	C214.635864,237.964264 216.667099,237.292252 219.588120,237.916626 
z"/>
<path fill="#2C749A" opacity="1.000000" stroke="none" 
	d="
M248.164566,113.683487 
	C248.238617,109.634018 247.437515,105.153435 248.783447,100.392517 
	C248.830292,104.450256 249.574646,108.921532 248.164566,113.683487 
z"/>
<path fill="#2C749A" opacity="1.000000" stroke="none" 
	d="
M248.944275,97.654488 
	C248.654312,96.893097 248.358704,95.780502 248.047943,94.316383 
	C248.334747,95.077667 248.636688,96.190483 248.944275,97.654488 
z"/>
<path fill="#4484A7" opacity="1.000000" stroke="none" 
	d="
M100.806030,264.123840 
	C101.025864,263.979858 101.501938,264.057129 101.739639,264.098328 
	C103.004745,264.814087 104.032158,265.488617 105.351395,266.270905 
	C107.740646,269.896088 111.840012,270.866974 114.897476,273.712402 
	C111.274971,273.897247 107.483276,273.766479 105.169609,269.837952 
	C104.465462,268.642273 103.060562,268.318604 101.363342,268.053131 
	C100.162025,266.834686 98.996262,265.704437 100.806030,264.123840 
z"/>
<path fill="#4484A7" opacity="1.000000" stroke="none" 
	d="
M128.323715,284.431763 
	C126.545746,284.822815 125.102295,285.297363 123.346008,284.071198 
	C126.450325,281.622406 129.493134,280.301361 133.585876,281.737396 
	C132.161362,283.590057 130.130554,283.393768 128.323715,284.431763 
z"/>
<path fill="#4484A7" opacity="1.000000" stroke="none" 
	d="
M104.926071,276.668823 
	C102.965462,276.767883 101.486504,275.885651 101.061890,273.350464 
	C102.842430,273.471741 104.396469,274.270355 104.926071,276.668823 
z"/>
<path fill="#4484A7" opacity="1.000000" stroke="none" 
	d="
M118.147141,275.278137 
	C119.800713,275.532288 121.615448,276.077637 123.740295,276.789368 
	C121.729439,278.179138 119.795097,277.801117 118.147141,275.278137 
z"/>
<path fill="#3F7590" opacity="1.000000" stroke="none" 
	d="
M199.108673,184.916321 
	C199.058426,184.870361 199.049942,184.691589 199.033447,184.244293 
	C199.155014,184.232651 199.196671,184.501892 199.108673,184.916321 
z"/>
<path fill="#2C749A" opacity="1.000000" stroke="none" 
	d="
M89.994339,251.404556 
	C90.244675,251.192413 90.498833,251.456192 90.931427,251.931702 
	C91.070412,269.778992 91.030945,287.414520 90.986748,305.516663 
	C89.773338,303.662048 90.004845,301.141205 90.002808,298.664032 
	C89.989990,283.069519 89.997421,267.475006 89.994339,251.404556 
z"/>
<path fill="#4581A3" opacity="1.000000" stroke="none" 
	d="
M209.362793,309.005341 
	C210.121140,308.026276 210.691620,307.185242 211.479263,306.688354 
	C212.517532,306.033264 213.973785,304.827759 214.910080,306.244659 
	C215.940582,307.804138 214.235794,308.432587 213.071747,308.936401 
	C211.986206,309.406189 211.351776,310.566650 210.511032,310.994751 
	C208.362167,312.088898 209.564270,310.001007 209.362793,309.005341 
z"/>
<path fill="#4484A7" opacity="1.000000" stroke="none" 
	d="
M154.659851,89.181648 
	C154.402847,90.211876 154.164505,91.910088 152.181747,90.345474 
	C152.816788,89.849945 153.584045,89.537209 154.659851,89.181648 
z"/>
<path fill="#4484A7" opacity="1.000000" stroke="none" 
	d="
M161.829834,89.739525 
	C161.069809,90.466682 160.080582,90.612373 159.138947,89.242874 
	C159.844330,89.204399 160.690887,89.396309 161.829834,89.739525 
z"/>
<path fill="#4581A4" opacity="1.000000" stroke="none" 
	d="
M87.612709,191.674240 
	C85.035545,189.934143 82.826538,188.154724 80.362686,186.170303 
	C78.130478,178.901596 81.548256,174.623901 90.733582,172.054169 
	C92.679276,172.687592 94.312141,173.504166 96.011940,174.142532 
	C99.807838,175.568069 102.209747,178.332260 102.439247,182.252594 
	C102.677864,186.328781 99.502182,188.255341 96.222778,189.815750 
	C93.607521,191.060165 90.726524,191.024185 87.612709,191.674240 
z"/>
<path fill="#4484A7" opacity="1.000000" stroke="none" 
	d="
M112.777039,197.175217 
	C113.165138,200.835022 111.817307,203.182343 107.244797,202.939377 
	C107.456245,202.141174 108.082138,201.345734 108.871758,200.297012 
	C109.769829,199.387573 110.504173,198.731415 111.415894,197.838562 
	C111.905724,197.479309 112.218170,197.356766 112.777039,197.175217 
z"/>
</svg>